<svg width="512" height="512" xmlns="http://www.w3.org/2000/svg"><path fill="url(#pattern)" d="M477.7 384 256 512 34.3 384V128L256 0l221.7 128z"/><svg y="1"><defs><filter color-interpolation-filters="sRGB" height="1.048" y="-.024" width="1.048" x="-.024" id="b"><feGaussianBlur stdDeviation="4.823"/></filter><filter color-interpolation-filters="sRGB" height="1.024" y="-.012" width="1.024" x="-.012" id="a"><feGaussianBlur stdDeviation="2.55"/></filter><filter color-interpolation-filters="sRGB" height="1.153" y="-.077" width="1.225" x="-.112" id="c"><feGaussianBlur stdDeviation="15.63"/></filter><filter color-interpolation-filters="sRGB" height="1.497" y="-.249" width="1.475" x="-.237" id="e"><feGaussianBlur stdDeviation="18.7"/></filter><filter color-interpolation-filters="sRGB" height="1.303" y="-.151" width="1.426" x="-.213" id="d"><feGaussianBlur stdDeviation="18.7"/></filter></defs><path enable-background="accumulate" stroke="#e0aa58" fill-rule="evenodd" fill="#ebc893" color="#000" overflow="visible" d="M196.6 1.207c-2.5 11.323-4.8 22.703-10.2 33.383-7-10.68-12.6-20.91-16.7-31.988L2.494 4.338C13 104.9 10.86 175.3 1.979 278.3L15.4 295.5l-9.494 6.3L2.6 462.7l1.019 45.9 112.681 3.1c3.6-16.1 6.5-32.5 13.2-47.3 4.5 14.4 5.7 29.4 7 44.4l160 .3c.8-6.1.7-8.1 2.3-14.4 5.1 4.5 7.8 9.5 10.6 14.5.8-10.1 3.9-19.8 7-29.5 4.8 9.2 6.7 19.4 8.8 29.5l185.2.4-4.6-78.2-21.4-8.2 21.3-4.9 5.8-395.47c-7-6.73-13.3-13.744-18-21.465l-15.1.114-2.1 20.321-1.4 47.23.8 84.87-8.6-97.14c9.3-16.86 2.2-39.69 5.7-55.239-92.1 1.696-184.1.685-276.2-.314z"/><path enable-background="accumulate" filter="url(#a)" fill-rule="evenodd" fill="#c87137" opacity=".527" color="#000" overflow="visible" d="M196.6 1.203c-2.5 11.327-4.8 22.707-10.2 33.387-7-10.68-12.6-20.91-16.7-31.99L2.494 4.336C13 104.9 10.86 175.3 1.979 278.3L15.4 295.5l-9.494 6.3L2.6 462.7l1.019 45.9 112.681 3.1c.5-2.1-7.9-2.3-7.4-4.5L5.244 504.5l-.914-47.3 4.63-153.7 12.42-9-13.093-16.8C16.95 177.3 16.36 104 6.113 5.992l162.687.164c4 10.804 10.3 24.254 17.1 34.664 5.3-10.41 9.5-25.97 12-37.02 89.8.974 173.8 3.521 263.6 1.867 4.6 1.226 10.6.431 11.3-4.149-92.1 1.696-184.1.684-276.2-.315zm296.9.158-15.1.116-.6 6.277 13.5-2.557c4.6 7.533 9.7 12.383 16.6 18.943l-4.6 389.06-19.9 9.9 4.1-.6 18.2-4.2 5.8-395.47c-7-6.73-13.3-13.748-18-21.469zm9.6 435.739 3.5 69.7-177.7.1c.4 2.1-4.1.2-3.7 2.3l185.2.4-4.6-78.2-2.7 5.7zm-370 25.1c-1 2.2-2.9.4-3.7 2.6 4.2 14 5.8 29.5 7.1 44l158 .3c1.9-5 .8-9.7 4.3-14.4 5.1 4.5 7.8 9.5 10.6 14.5.8-10.1 3.9-19.8 7-29.5 1.8 3.4 3.2 7 4.3 10.6-1.4-5.6-2.4-8.3-5.1-13.4-3 9.4-6.7 16.2-7.5 26-2.7-4.9-5.4-9.7-10.4-14.1-3.4 4.6-6.2 9.1-8 14l-147.6 3.4c-3.4-14.6-7.1-30.3-9-44z"/><path color="#000" fill="#f6e7d0" fill-rule="evenodd" filter="url(#b)" enable-background="accumulate" overflow="visible" d="M200.1 16.1c-2.3 10.67-10.5 21.38-15.6 31.44-6.6-10.06-13.9-19.69-17.7-30.12L17.34 19.05C24.61 113.6 7.605 179.3 16.85 277l18.26 20.1L10.34 309l7.1 141.6.96 43.3 90.2 3.4c3.4-15.2 15-35.6 21.3-49.6 4.3 13.6 15.4 36.7 16.6 50.9l45.1.8 13.8-18.7 14.4 22.2 68.7-8.6c1.8-4.7 4.5-9.1 7.8-13.5 4.8 4.2 7.4 8.9 10 13.6.8-9.5 7.7-19.6 10.6-28.7 4.5 8.6 19.9 28.9 33.1 33.9l114.6 5.6 22.3-14.7 19.4 14.7-14.5-67.6-34.6-14.2 37.5-15.1 2.1-96.9-14.5-21.9 15.2-13.4 5.1-239.63c-5.2-21.09-11.8-24.89-16.9-20.22l-4.2 2.11 2 19.14.7 44.47-7.1 124.23-18.3-137.78c8.8-15.88-3.9-35.38-.6-50.02-67.1 1.24-140.4-13.332-202.8-3.28-14 2.25-23.7 21.31-36.9 24.48-4.3 1.03-13.9-23.45-18.4-23.5z"/><path enable-background="accumulate" filter="url(#c)" fill-rule="evenodd" fill="#f2dbb9" overflow="visible" color="#000" d="m354 27.39-70.3 96.91 46.4 97.6-56.2 43.6 33 74.4-30.2 63.2 69.8 48.8 31.6 29.5 31.6-13.3L365.9 335l55.5-36.5 2.1-146.1-56.9-101.83L354 27.39zM116.6 55.48 89.9 123.6s33.7 65.3 35.8 68.8c2.1 3.6-7 118-7 118l42.8 73.8s9.9-82.9 7.1-83.6c-2.8-.7-29.5-42.1-29.5-42.1l23.8-84.3-36.5-37.2-9.8-81.52z"/><path filter="url(#d)" enable-background="accumulate" fill-rule="evenodd" fill="#eed3a4" overflow="visible" color="#000" d="m39.33 172.1-5.62 108.1L74.45 328 42.84 464.9l96.96-39.3 30.2 42.9 74.4-38.7-80.8-169.9-60.4-16.9-63.87-70.9z"/><path filter="url(#e)" enable-background="accumulate" fill-rule="evenodd" fill="#eed3a4" overflow="visible" color="#000" d="M266.9 66.72 324.5 191 434 221.2l21.8-111.6-41.4-68.86-147.5 25.98z"/></svg><path fill="#b57204" d="M169.283 50.833v18.044a69.75 69.75 0 0 0-60.406 60.406H90.833v17.434h18.044a69.75 69.75 0 0 0 60.406 60.406v18.044h17.434v-18.044a69.75 69.75 0 0 0 60.406-60.406h18.044v-17.434h-18.044a69.75 69.75 0 0 0-60.406-60.406V50.833m-17.434 35.564v16.736h17.434V86.485c21.791 3.573 39.225 21.007 42.886 42.798h-16.736v17.434h16.648c-3.573 21.791-21.007 39.225-42.798 42.886v-16.736h-17.434v16.649c-21.791-3.574-39.225-21.008-42.886-42.8h16.736v-17.433h-16.648c3.573-21.791 21.007-39.225 42.798-42.886M178 129.283a8.717 8.717 0 0 0-8.717 8.717 8.717 8.717 0 0 0 8.717 8.717 8.717 8.717 0 0 0 8.717-8.717 8.717 8.717 0 0 0-8.717-8.717zM85.083 199.833v12.248a47.345 47.345 0 0 0-41.002 41.002H31.833v11.834h12.248a47.345 47.345 0 0 0 41.002 41.002v12.248h11.834v-12.248a47.345 47.345 0 0 0 41.002-41.002h12.248v-11.834h-12.248a47.345 47.345 0 0 0-41.002-41.002v-12.248m-11.834 24.14v11.36h11.834v-11.3c14.791 2.425 26.625 14.259 29.11 29.05h-11.36v11.834h11.3c-2.425 14.791-14.259 26.625-29.05 29.11v-11.36H85.083v11.3c-14.791-2.425-26.625-14.259-29.11-29.05h11.36v-11.834h-11.3c2.425-14.791 14.259-26.625 29.05-29.11M91 253.083A5.917 5.917 0 0 0 85.083 259 5.917 5.917 0 0 0 91 264.917 5.917 5.917 0 0 0 96.917 259 5.917 5.917 0 0 0 91 253.083zM291.483 157.833v32.12a124.164 124.164 0 0 0-107.53 107.53h-32.12v31.034h32.12a124.164 124.164 0 0 0 107.53 107.53v32.12h31.034v-32.12a124.164 124.164 0 0 0 107.53-107.53h32.12v-31.034h-32.12a124.164 124.164 0 0 0-107.53-107.53v-32.12m-31.034 63.308v29.792h31.034v-29.636c38.791 6.361 69.825 37.395 76.342 76.186h-29.792v31.034h29.637c-6.362 38.791-37.396 69.825-76.187 76.342v-29.792h-31.034v29.637c-38.791-6.362-69.825-37.396-76.342-76.187h29.792v-31.034h-29.636c6.361-38.791 37.395-69.825 76.186-76.342M307 297.483A15.517 15.517 0 0 0 291.483 313 15.517 15.517 0 0 0 307 328.517 15.517 15.517 0 0 0 322.517 313 15.517 15.517 0 0 0 307 297.483z"/></svg>